<svg width="24" height="24" viewBox="0 0 24 24" fill="none" xmlns="http://www.w3.org/2000/svg"><path fill-rule="evenodd" clip-rule="evenodd" d="M1.757 1.757C0 3.515 0 6.343 0 12s0 8.485 1.757 10.243c1.552 1.551 3.938 1.733 8.368 1.754v-8.383H7.078v-3.468h3.047V9.502c0-3.008 1.792-4.669 4.533-4.669 1.312 0 2.686.235 2.686.235V8.02H15.83c-1.491 0-1.956.925-1.956 1.875v2.25h3.328l-.532 3.468h-2.796v8.383c4.43-.021 6.816-.203 8.368-1.754C24 20.485 24 17.657 24 12s0-8.485-1.757-10.243C20.485 0 17.657 0 12 0S3.515 0 1.757 1.757z" fill="rgb(83, 90, 116)"></path></svg>