<?xml version="1.0" encoding="utf-8"?>
<svg xmlns="http://www.w3.org/2000/svg" width="24" height="24" viewBox="0 0 24 24" fill="none">
<g clip-path="url(#clip0_774_455)">
<path fill-rule="evenodd" clip-rule="evenodd" d="M0 12C0 6.34315 0 3.51472 1.75736 1.75736C3.51472 0 6.34315 0 12 0C17.6569 0 20.4853 0 22.2426 1.75736C24 3.51472 24 6.34315 24 12C24 17.6569 24 20.4853 22.2426 22.2426C20.4853 24 17.6569 24 12 24C6.34315 24 3.51472 24 1.75736 22.2426C0 20.4853 0 17.6569 0 12ZM12 5.83594C8.59688 5.83594 5.83594 8.59688 5.83594 12C5.83594 15.4031 8.59688 18.1641 12 18.1641C15.4031 18.1641 18.1641 15.4031 18.1641 12C18.1641 8.59688 15.4031 5.83594 12 5.83594ZM12 15.9984C9.79219 15.9984 8.00156 14.2078 8.00156 12C8.00156 9.79219 9.79219 8.00156 12 8.00156C14.2078 8.00156 15.9984 9.79219 15.9984 12C15.9984 14.2078 14.2078 15.9984 12 15.9984ZM18.4078 7.0312C19.2 7.0312 19.8469 6.38902 19.8469 5.59214C19.8469 4.79995 19.2 4.15308 18.4078 4.15308C17.6156 4.15308 16.9688 4.79526 16.9688 5.59214C16.9688 6.38433 17.6109 7.0312 18.4078 7.0312Z" fill="#535A74"/>
</g>
<defs>
<clipPath id="clip0_774_455">
<rect width="24" height="24" fill="white"/>
</clipPath>
</defs>
</svg>