<?xml version="1.0" encoding="utf-8"?>
<svg xmlns="http://www.w3.org/2000/svg" width="24" height="24" viewBox="0 0 24 24" fill="none">
<g clip-path="url(#clip0_774_461)">
<path fill-rule="evenodd" clip-rule="evenodd" d="M0 12C0 17.6569 0 20.4853 1.75736 22.2426C3.51472 24 6.34315 24 12 24C17.6569 24 20.4853 24 22.2426 22.2426C24 20.4853 24 17.6569 24 12C24 6.34315 24 3.51472 22.2426 1.75736C20.4853 0 17.6569 0 12 0C6.34315 0 3.51472 0 1.75736 1.75736C0 3.51472 0 6.34315 0 12ZM4.96484 9.49609V19.043H7.93359V9.49609H4.96484ZM4.72656 6.47656C4.72656 7.42578 5.49609 8.19531 6.44922 8.19531C7.39844 8.19531 8.16797 7.42188 8.16797 6.47656C8.16797 5.52734 7.39844 4.75781 6.44922 4.75781C5.49609 4.75781 4.72656 5.52734 4.72656 6.47656ZM16.0781 19.043H19.043V13.8047C19.043 11.2344 18.4883 9.25781 15.4844 9.25781C14.043 9.25781 13.0742 10.0508 12.6797 10.8008H12.6406V9.49609H9.79688V19.043H12.7578V14.3242C12.7578 13.0781 12.9922 11.8711 14.5352 11.8711C16.0586 11.8711 16.0781 13.2969 16.0781 14.4023V19.043Z" fill="#535A74"/>
</g>
<defs>
<clipPath id="clip0_774_461">
<rect width="24" height="24" fill="white"/>
</clipPath>
</defs>
</svg>