<?xml version="1.0" encoding="utf-8"?>
<svg xmlns="http://www.w3.org/2000/svg" width="24" height="24" viewBox="0 0 24 24" fill="none">
<g clip-path="url(#clip0_774_453)">
<path fill-rule="evenodd" clip-rule="evenodd" d="M1.75736 1.75736C0 3.51472 0 6.34315 0 12C0 17.6569 0 20.4853 1.75736 22.2426C3.51472 24 6.34315 24 12 24C17.6569 24 20.4853 24 22.2426 22.2426C24 20.4853 24 17.6569 24 12C24 6.34315 24 3.51472 22.2426 1.75736C20.4853 0 17.6569 0 12 0C6.34315 0 3.51472 0 1.75736 1.75736ZM18.1727 6H16.026L12.4879 9.8345L9.42953 6H5L10.2925 12.5633L5.27636 18H7.42427L11.2963 13.8054L14.6798 18H19L13.4829 11.0834L18.1727 6ZM16.4622 16.7816H15.2724L7.50688 7.15475H8.78349L16.4622 16.7816Z" fill="#535A74"/>
</g>
<defs>
<clipPath id="clip0_774_453">
<rect width="24" height="24" fill="white"/>
</clipPath>
</defs>
</svg>